<svg xmlns="http://www.w3.org/2000/svg"
 xmlns:xlink="http://www.w3.org/1999/xlink"
 width="32px" height="25px"  viewBox="0 0 32 25">
<path fill-rule="evenodd"  fill="#ffffff"
 d="M1.7467041,17.464722 C1.7467041,17.464722 5.5462646,18.805542 7.125122,18.805542 C7.125122,18.805542 9.234375,19.657227 10.679932,17.378052 C10.679932,17.378052 11.167969,16.668213 10.507568,16.32312 C10.507568,16.32312 4.4801025,15.614502 4.939331,14.494995 C4.939331,14.494995 4.9107666,13.863037 5.743164,14.00647 C5.743164,14.00647 6.9055176,11.748779 6.446167,11.462036 C6.446167,11.462036 5.7283936,10.830078 6.3026123,10.772827 C6.3026123,10.772827 7.991333,11.001587 8.536987,11.145264 C8.536987,11.145264 8.910278,11.010986 8.565796,10.752563 C8.221313,10.493774 7.647217,9.912476 7.761841,9.797607 C7.761841,9.797607 7.9627686,9.309937 8.88147,9.71167 C8.88147,9.71167 9.393433,9.159424 9.135132,8.872192 C9.135132,8.872192 8.360107,8.412842 8.733276,8.039673 C8.733276,8.039673 10.483276,5.840454 12.432861,9.309448 C12.432861,9.309448 12.9210205,9.969727 12.978516,9.337891 C12.978516,9.337891 15.363647,2.5473633 18.492676,2.0019531 C18.492676,2.0019531 19.497192,2.2027588 19.69812,1.887085 C19.69812,1.887085 20.567993,1.5428467 20.855225,1.8297119 C20.855225,1.8297119 21.142212,2.260376 21.486694,2.0019531 C21.486694,2.0019531 22.720947,1.513916 22.347778,2.3173828 C22.347778,2.3173828 21.166138,3.6219482 20.735596,3.651123 C20.305054,3.6793213 20.391113,4.2613525 20.76416,4.3187256 C20.76416,4.3187256 25.927368,4.690674 25.927368,8.5373535 C25.927368,8.5373535 26.229248,9.451538 27.205322,8.503662 C27.205322,8.503662 28.682861,7.563965 29.05603,7.5186768 C29.05603,7.5186768 29.457886,7.260742 29.400757,7.8635254 C29.400757,7.8635254 28.338745,9.7022705 27.247925,10.21875 C27.247925,10.21875 26.587769,11.051147 27.535156,10.87915 C27.535156,10.87915 28.456665,10.688965 28.887085,10.430054 C28.887085,10.430054 30.006714,9.88501 29.48999,10.861206 C29.48999,10.861206 27.132935,12.390625 26.616577,12.390625 C26.616577,12.390625 26.271973,12.4765625 26.271973,12.792236 C26.271973,12.792236 25.956055,23.269897 12.808716,23.269897 C12.808716,23.269897 6.2249756,23.262817 1.9193115,18.210693 C1.9193115,18.210693 1.0866699,17.320435 1.7467041,17.464722 Z"/>
</svg>